<svg xmlns:dc="http://purl.org/dc/elements/1.1/" xmlns:cc="http://creativecommons.org/ns#" xmlns:rdf="http://www.w3.org/1999/02/22-rdf-syntax-ns#" xmlns:svg="http://www.w3.org/2000/svg" xmlns="http://www.w3.org/2000/svg" xmlns:sodipodi="http://sodipodi.sourceforge.net/DTD/sodipodi-0.dtd" xmlns:inkscape="http://www.inkscape.org/namespaces/inkscape" version="1.1" viewBox="0 0 16.933332 21.1666675" x="0px" y="0px"><g><g style="" transform="matrix(0.91908741,0,0,0.91870279,-569.67443,-0.92175764)" stroke-width="1.08826"><path d="m 623.3296,1.5214522 c -1.1646,0 -2.11451,0.949883 -2.11451,2.1144831 v 1.9865862 l -1.23437,0.9402082 a 0.39268118,0.39268111 0 0 0 -0.15455,0.312254 v 2.469697 a 0.39264192,0.39264184 0 0 0 0.3926,0.392621 0.39264192,0.39264184 0 0 0 0.39252,-0.392621 v -2.275145 l 0.6038,-0.459979 v 8.4436603 c 0,0.884906 0.54866,1.645189 1.32299,1.959586 v 0.644125 c 0,0.690082 0.56515,1.260056 1.25489,1.260056 h 0.61427 c 0.68974,0 1.2551,-0.570022 1.2551,-1.260056 v -0.489439 h 6.75174 v 0.489439 c 0,0.690082 0.56536,1.260056 1.2551,1.260056 h 0.61405 c 0.68974,0 1.2551,-0.570022 1.2551,-1.260056 v -0.644195 c 0.7742,-0.314458 1.32279,-1.074704 1.32279,-1.959516 V 6.6095567 l 0.60372,0.459979 v 2.275145 a 0.39264192,0.39264184 0 0 0 0.3926,0.392621 0.39264192,0.39264184 0 0 0 0.3928,-0.392621 v -2.469697 a 0.39268118,0.39268111 0 0 0 -0.15476,-0.312254 L 636.86112,5.6223808 V 3.6359353 c 0,-1.1646001 -0.94992,-2.1144831 -2.11452,-2.1144831 z m 0,0.7853814 h 11.417 c 0.74314,0 1.32932,0.5859669 1.32932,1.3291017 V 4.0131575 H 622.00049 V 3.6359353 c 0,-0.7431348 0.58598,-1.3291017 1.32911,-1.3291017 z m -1.32911,2.4914944 h 14.07543 v 1.0126992 a 0.39264192,0.39264184 0 0 0 0,0.00998 v 5.6003258 h -14.07543 z m 0,7.408461 h 14.07543 v 2.846428 c 0,0.743135 -0.58618,1.329101 -1.32932,1.329101 h -11.417 c -0.74313,0 -1.32911,-0.585966 -1.32911,-1.329101 z m 1.67019,0.581266 c -0.6459,0 -1.17772,0.53231 -1.17772,1.178213 0,0.645903 0.53182,1.178214 1.17772,1.178213 0.6459,0 1.17751,-0.53231 1.17751,-1.178213 0,-0.645902 -0.53161,-1.178212 -1.17751,-1.178213 z m 10.73491,0 c -0.64589,0 -1.17772,0.53231 -1.17772,1.178213 0,0.645903 0.53183,1.178214 1.17772,1.178213 0.6459,0 1.17772,-0.53231 1.17772,-1.178213 0,-0.645902 -0.53182,-1.178212 -1.17772,-1.178213 z m -10.73491,0.785171 c 0.22123,0 0.39239,0.171272 0.39239,0.393042 0,0.22177 -0.17116,0.392832 -0.39239,0.392832 -0.22123,0 -0.39253,-0.171062 -0.39253,-0.392832 0,-0.22177 0.1713,-0.393042 0.39253,-0.393042 z m 10.73491,0 c 0.22123,0 0.39232,0.171272 0.39232,0.393042 0,0.22177 -0.17109,0.392832 -0.39232,0.392832 -0.22123,0 -0.39238,-0.171062 -0.39238,-0.392832 0,-0.22177 0.17115,-0.393042 0.39238,-0.393042 z m -8.25591,0.785874 a 0.39264379,0.39264375 0 0 0 -0.3926,0.39262 0.39264379,0.39264375 0 0 0 0.3926,0.392761 h 5.77685 a 0.39264379,0.39264375 0 0 0 0.39259,-0.392761 0.39264379,0.39264375 0 0 0 -0.39259,-0.39262 z m -2.82641,2.808248 c 0.002,6e-6 0.004,1.44e-4 0.006,1.44e-4 h 1.54733 v 0.48944 c 0,0.271093 -0.20394,0.474885 -0.46969,0.474885 h -0.61427 c -0.26576,0 -0.4697,-0.203838 -0.4697,-0.474885 z m 11.42966,0 v 0.48958 c 0,0.271094 -0.20394,0.474886 -0.4697,0.474886 h -0.61405 c -0.26576,0 -0.46998,-0.203838 -0.46998,-0.474886 v -0.489439 h 1.5474 c 0.002,0 0.004,-1.44e-4 0.006,-1.44e-4 z" style="color:#000000;font-style:normal;font-variant:normal;font-weight:normal;font-stretch:normal;font-size:medium;line-height:normal;font-family:sans-serif;font-variant-ligatures:normal;font-variant-position:normal;font-variant-caps:normal;font-variant-numeric:normal;font-variant-alternates:normal;font-variant-east-asian:normal;font-feature-settings:normal;font-variation-settings:normal;text-indent:0;text-align:start;text-decoration:none;text-decoration-line:none;text-decoration-style:solid;text-decoration-color:#000000;letter-spacing:normal;word-spacing:normal;text-transform:none;writing-mode:lr-tb;direction:ltr;text-orientation:mixed;dominant-baseline:auto;baseline-shift:baseline;text-anchor:start;white-space:normal;shape-padding:0;shape-margin:0;inline-size:0;clip-rule:nonzero;display:inline;overflow:visible;visibility:visible;opacity:1;isolation:auto;mix-blend-mode:normal;color-interpolation:sRGB;color-interpolation-filters:linearRGB;solid-color:#000000;solid-opacity:1;vector-effect:none;fill:#000000;fill-opacity:1;fill-rule:nonzero;stroke:none;stroke-width:5.75876;stroke-linecap:round;stroke-linejoin:round;stroke-miterlimit:4;stroke-dasharray:none;stroke-dashoffset:0;stroke-opacity:1;paint-order:stroke fill markers;color-rendering:auto;image-rendering:auto;shape-rendering:auto;text-rendering:auto;enable-background:accumulate;stop-color:#000000;stop-opacity:1"/></g></g><text x="0" y="31.933334" fill="#000000" font-size="5px" font-weight="bold" font-family="'Helvetica Neue', Helvetica, Arial-Unicode, Arial, Sans-serif">Created by Muhammad Naufal Subhiansyah</text><text x="0" y="36.933334" fill="#000000" font-size="5px" font-weight="bold" font-family="'Helvetica Neue', Helvetica, Arial-Unicode, Arial, Sans-serif">from the Noun Project</text></svg>